<svg width="1600" height="1754" viewBox="0 0 1600 1754" fill="none" xmlns="http://www.w3.org/2000/svg">
<rect x="-1.99805" y="370" width="1601" height="1" fill="#EDEDED"/>
<rect x="-2" y="519" width="1601" height="1" fill="#EDEDED"/>
<rect y="676" width="1601" height="1" fill="#EDEDED"/>
<rect x="-2" y="896" width="1601" height="1" fill="#EDEDED"/>
<rect y="299" width="1601" height="1" fill="#EDEDED"/>
<rect x="-0.00195312" y="449" width="1601" height="1" fill="#EDEDED"/>
<rect x="-2.00391" y="599" width="1601" height="1" fill="#EDEDED"/>
<rect x="224" y="1199" width="1037" height="1" transform="rotate(-90 224 1199)" fill="#EDEDED"/>
<rect x="245" width="1" height="1753" fill="#EDEDED"/>
<rect x="526" width="1" height="1753" fill="#EDEDED"/>
<rect x="805" width="1" height="1753" fill="#EDEDED"/>
<rect x="1082" width="1" height="1753" fill="#EDEDED"/>
<rect x="1360" y="1" width="1" height="1753" fill="#EDEDED"/>
<rect x="-40.0469" y="164" width="1423" height="1" fill="#EDEDED"/>
<rect x="-41.0469" y="140" width="1423" height="1" fill="#EDEDED"/>
<rect x="1105.45" y="142.5" width="274.935" height="20" fill="#EFEFEF" stroke="#B1B1B1"/>
<rect width="0.933214" height="27.4773" transform="matrix(0.70319 0.711002 -0.70319 0.711002 1125.26 142.12)" fill="#B1B1B1"/>
<rect width="0.933214" height="14.7003" transform="matrix(0.70319 0.711002 -0.70319 0.711002 1115.38 142)" fill="#B1B1B1"/>
<rect width="0.933214" height="14.7003" transform="matrix(0.70319 0.711002 -0.70319 0.711002 1380.34 152)" fill="#B1B1B1"/>
<rect width="0.933214" height="27.4773" transform="matrix(0.70319 0.711002 -0.70319 0.711002 1135.23 142.12)" fill="#B1B1B1"/>
<rect width="0.933214" height="27.4773" transform="matrix(0.70319 0.711002 -0.70319 0.711002 1145.44 142.12)" fill="#B1B1B1"/>
<rect width="0.933214" height="27.4773" transform="matrix(0.70319 0.711002 -0.70319 0.711002 1155.65 142.12)" fill="#B1B1B1"/>
<rect width="0.933214" height="27.4773" transform="matrix(0.70319 0.711002 -0.70319 0.711002 1165.85 142.12)" fill="#B1B1B1"/>
<rect width="0.933214" height="27.4773" transform="matrix(0.70319 0.711002 -0.70319 0.711002 1176.06 142.12)" fill="#B1B1B1"/>
<rect width="0.933214" height="27.4773" transform="matrix(0.70319 0.711002 -0.70319 0.711002 1186.27 142.12)" fill="#B1B1B1"/>
<rect width="0.933214" height="27.4773" transform="matrix(0.70319 0.711002 -0.70319 0.711002 1196.48 142.12)" fill="#B1B1B1"/>
<rect width="0.933214" height="27.4773" transform="matrix(0.70319 0.711002 -0.70319 0.711002 1206.69 142.12)" fill="#B1B1B1"/>
<rect width="0.933214" height="27.4773" transform="matrix(0.70319 0.711002 -0.70319 0.711002 1216.89 142.12)" fill="#B1B1B1"/>
<rect width="0.933214" height="27.4773" transform="matrix(0.70319 0.711002 -0.70319 0.711002 1227.11 142.12)" fill="#B1B1B1"/>
<rect width="0.933214" height="27.4773" transform="matrix(0.70319 0.711002 -0.70319 0.711002 1237.31 142.12)" fill="#B1B1B1"/>
<rect width="0.933214" height="27.4773" transform="matrix(0.70319 0.711002 -0.70319 0.711002 1247.52 142.12)" fill="#B1B1B1"/>
<rect width="0.933214" height="27.4773" transform="matrix(0.70319 0.711002 -0.70319 0.711002 1257.73 142.12)" fill="#B1B1B1"/>
<rect width="0.933214" height="27.4773" transform="matrix(0.70319 0.711002 -0.70319 0.711002 1267.94 142.12)" fill="#B1B1B1"/>
<rect width="0.933214" height="27.4773" transform="matrix(0.70319 0.711002 -0.70319 0.711002 1278.15 142.12)" fill="#B1B1B1"/>
<rect width="0.933214" height="27.4773" transform="matrix(0.70319 0.711002 -0.70319 0.711002 1288.36 142.12)" fill="#B1B1B1"/>
<rect width="0.933214" height="27.4773" transform="matrix(0.70319 0.711002 -0.70319 0.711002 1298.56 142.12)" fill="#B1B1B1"/>
<rect width="0.933214" height="27.4773" transform="matrix(0.70319 0.711002 -0.70319 0.711002 1308.77 142.12)" fill="#B1B1B1"/>
<rect width="0.933214" height="27.4773" transform="matrix(0.70319 0.711002 -0.70319 0.711002 1318.98 142.12)" fill="#B1B1B1"/>
<rect width="0.933214" height="27.4773" transform="matrix(0.70319 0.711002 -0.70319 0.711002 1329.19 142.12)" fill="#B1B1B1"/>
<rect width="0.933214" height="27.4773" transform="matrix(0.70319 0.711002 -0.70319 0.711002 1339.4 142.12)" fill="#B1B1B1"/>
<rect width="0.933214" height="27.4773" transform="matrix(0.70319 0.711002 -0.70319 0.711002 1349.61 142.12)" fill="#B1B1B1"/>
<rect width="0.933214" height="27.4773" transform="matrix(0.70319 0.711002 -0.70319 0.711002 1359.81 142.12)" fill="#B1B1B1"/>
<rect width="0.933214" height="27.4773" transform="matrix(0.70319 0.711002 -0.70319 0.711002 1370.02 142.12)" fill="#B1B1B1"/>
<rect width="0.933214" height="27.4773" transform="matrix(0.70319 0.711002 -0.70319 0.711002 1380.23 142.12)" fill="#B1B1B1"/>
<rect x="276.684" y="633.209" width="1" height="392.408" transform="rotate(45.0864 276.684 633.209)" fill="#EDEDED"/>
<rect x="-2" y="632.707" width="1" height="392.408" transform="rotate(-45 -2 632.707)" fill="#EDEDED"/>
<path d="M155.234 755C164.411 764.177 164.411 779.057 155.234 788.234C146.057 797.411 131.177 797.411 122 788.234" stroke="#C4C4C4"/>
<path d="M169.253 786V781.443L168.308 781.765L168.21 781.478L169.33 781.065H169.61V786H169.253ZM172.55 786.07C172.027 786.07 171.593 785.942 171.248 785.685C170.902 785.424 170.73 785.088 170.73 784.677C170.73 784.402 170.83 784.159 171.031 783.949C171.231 783.734 171.493 783.573 171.815 783.466C171.203 783.219 170.898 782.834 170.898 782.311C170.898 781.942 171.063 781.637 171.395 781.394C171.726 781.151 172.111 781.03 172.55 781.03C172.988 781.03 173.373 781.151 173.705 781.394C174.036 781.637 174.202 781.947 174.202 782.325C174.202 782.838 173.896 783.219 173.285 783.466C173.607 783.573 173.868 783.734 174.069 783.949C174.269 784.159 174.37 784.406 174.37 784.691C174.37 785.092 174.195 785.424 173.845 785.685C173.499 785.942 173.068 786.07 172.55 786.07ZM171.5 785.44C171.761 785.641 172.111 785.741 172.55 785.741C172.988 785.741 173.338 785.641 173.6 785.44C173.861 785.235 173.992 784.985 173.992 784.691C173.992 784.388 173.852 784.138 173.572 783.942C173.292 783.741 172.951 783.641 172.55 783.641C172.144 783.641 171.801 783.741 171.521 783.942C171.245 784.143 171.108 784.397 171.108 784.705C171.108 784.994 171.238 785.239 171.5 785.44ZM171.647 783.053C171.894 783.24 172.195 783.333 172.55 783.333C172.904 783.333 173.205 783.24 173.453 783.053C173.7 782.862 173.824 782.614 173.824 782.311C173.824 782.036 173.7 781.809 173.453 781.632C173.21 781.45 172.909 781.359 172.55 781.359C172.19 781.359 171.887 781.45 171.64 781.632C171.397 781.814 171.276 782.045 171.276 782.325C171.276 782.619 171.399 782.862 171.647 783.053ZM177.232 786.084C176.625 786.084 176.135 785.839 175.762 785.349C175.393 784.854 175.209 784.255 175.209 783.55C175.209 783.097 175.291 782.68 175.454 782.297C175.617 781.914 175.855 781.606 176.168 781.373C176.485 781.135 176.845 781.016 177.246 781.016C177.853 781.016 178.34 781.263 178.709 781.758C179.082 782.248 179.269 782.845 179.269 783.55C179.269 784.003 179.187 784.42 179.024 784.803C178.861 785.186 178.62 785.496 178.303 785.734C177.99 785.967 177.633 786.084 177.232 786.084ZM176.049 785.097C176.357 785.536 176.756 785.755 177.246 785.755C177.736 785.755 178.133 785.538 178.436 785.104C178.739 784.665 178.891 784.147 178.891 783.55C178.891 782.953 178.737 782.437 178.429 782.003C178.121 781.564 177.722 781.345 177.232 781.345C176.742 781.345 176.345 781.562 176.042 781.996C175.739 782.43 175.587 782.948 175.587 783.55C175.587 784.143 175.741 784.658 176.049 785.097ZM182.034 782.808C181.824 783.013 181.579 783.116 181.299 783.116C181.019 783.116 180.771 783.013 180.557 782.808C180.347 782.603 180.242 782.36 180.242 782.08C180.242 781.809 180.347 781.571 180.557 781.366C180.771 781.161 181.019 781.058 181.299 781.058C181.579 781.058 181.824 781.161 182.034 781.366C182.248 781.571 182.356 781.814 182.356 782.094C182.356 782.365 182.248 782.603 182.034 782.808ZM180.795 782.598C180.93 782.738 181.098 782.808 181.299 782.808C181.499 782.808 181.667 782.736 181.803 782.591C181.938 782.446 182.006 782.276 182.006 782.08C182.006 781.889 181.938 781.723 181.803 781.583C181.667 781.438 181.499 781.366 181.299 781.366C181.098 781.366 180.93 781.438 180.795 781.583C180.659 781.728 180.592 781.898 180.592 782.094C180.592 782.285 180.659 782.453 180.795 782.598Z" fill="#979797"/>
</svg>
