<svg width="1600" height="1163" viewBox="0 0 1600 1163" fill="none" xmlns="http://www.w3.org/2000/svg">
<rect x="592" y="353" width="792" height="1" fill="#EDEDED"/>
<rect x="591" y="1162" width="1161" height="1" transform="rotate(-90 591 1162)" fill="#EDEDED"/>
<rect x="677" y="1162" width="1161" height="1" transform="rotate(-90 677 1162)" fill="#EDEDED"/>
<rect x="173" y="1016" width="1015" height="1" transform="rotate(-90 173 1016)" fill="#EDEDED"/>
<rect x="142" y="306" width="485" height="1" fill="#EDEDED"/>
<rect x="-40" y="184" width="1423" height="1" fill="#EDEDED"/>
<rect x="-41" y="160" width="1423" height="1" fill="#EDEDED"/>
<rect x="-119" y="1014" width="1719" height="1" fill="#EDEDED"/>
<rect x="-110" y="900" width="1719" height="1" fill="#EDEDED"/>
<rect x="-106" y="630" width="1719" height="1" fill="#EDEDED"/>
<rect x="-87" y="1161" width="1681" height="1" fill="#EDEDED"/>
<rect x="591" y="379" width="1263" height="1" fill="#EDEDED"/>
<path d="M1102.18 1034.08C1101.43 1034.08 1100.83 1033.79 1100.38 1033.2L1100.66 1032.97C1101.07 1033.49 1101.58 1033.75 1102.18 1033.75C1102.52 1033.75 1102.81 1033.65 1103.05 1033.45C1103.28 1033.24 1103.4 1032.98 1103.4 1032.66C1103.4 1032.32 1103.25 1032.06 1102.97 1031.87C1102.69 1031.69 1102.32 1031.59 1101.87 1031.59H1101.6L1101.51 1031.39L1103.2 1029.44H1100.63V1029.1H1103.7V1029.36L1102.04 1031.26C1102.26 1031.27 1102.46 1031.31 1102.65 1031.37C1102.85 1031.42 1103.03 1031.51 1103.21 1031.61C1103.38 1031.72 1103.52 1031.86 1103.62 1032.04C1103.72 1032.22 1103.77 1032.42 1103.77 1032.66C1103.77 1033.07 1103.61 1033.41 1103.3 1033.68C1102.98 1033.95 1102.61 1034.08 1102.18 1034.08ZM1106.59 1034.08C1106.09 1034.08 1105.67 1033.92 1105.34 1033.59C1105.13 1033.38 1104.97 1033.13 1104.87 1032.84C1104.77 1032.55 1104.72 1032.16 1104.72 1031.67C1104.72 1030.91 1104.9 1030.28 1105.27 1029.78C1105.64 1029.27 1106.12 1029.02 1106.72 1029.02C1107.2 1029.02 1107.67 1029.2 1108.13 1029.58L1107.9 1029.86C1107.51 1029.52 1107.11 1029.34 1106.69 1029.34C1106.21 1029.34 1105.82 1029.57 1105.53 1030.02C1105.23 1030.46 1105.08 1031.05 1105.08 1031.77V1031.89C1105.44 1031.28 1105.95 1030.98 1106.62 1030.98C1107.07 1030.98 1107.47 1031.12 1107.8 1031.4C1108.14 1031.68 1108.3 1032.04 1108.3 1032.47C1108.3 1032.94 1108.14 1033.32 1107.81 1033.63C1107.48 1033.93 1107.07 1034.08 1106.59 1034.08ZM1106.62 1033.75C1107 1033.75 1107.32 1033.63 1107.56 1033.38C1107.81 1033.14 1107.93 1032.83 1107.93 1032.47C1107.93 1032.14 1107.8 1031.86 1107.55 1031.63C1107.3 1031.41 1106.98 1031.3 1106.6 1031.3C1106.21 1031.3 1105.88 1031.42 1105.62 1031.67C1105.36 1031.92 1105.23 1032.2 1105.23 1032.52C1105.23 1032.87 1105.36 1033.17 1105.62 1033.4C1105.89 1033.64 1106.22 1033.75 1106.62 1033.75ZM1111.24 1034.08C1110.64 1034.08 1110.15 1033.84 1109.77 1033.35C1109.4 1032.85 1109.22 1032.25 1109.22 1031.55C1109.22 1031.1 1109.3 1030.68 1109.46 1030.3C1109.63 1029.91 1109.87 1029.61 1110.18 1029.37C1110.5 1029.13 1110.85 1029.02 1111.26 1029.02C1111.86 1029.02 1112.35 1029.26 1112.72 1029.76C1113.09 1030.25 1113.28 1030.85 1113.28 1031.55C1113.28 1032 1113.2 1032.42 1113.03 1032.8C1112.87 1033.19 1112.63 1033.5 1112.31 1033.73C1112 1033.97 1111.64 1034.08 1111.24 1034.08ZM1110.06 1033.1C1110.37 1033.54 1110.77 1033.75 1111.26 1033.75C1111.75 1033.75 1112.14 1033.54 1112.45 1033.1C1112.75 1032.67 1112.9 1032.15 1112.9 1031.55C1112.9 1030.95 1112.75 1030.44 1112.44 1030C1112.13 1029.56 1111.73 1029.34 1111.24 1029.34C1110.75 1029.34 1110.36 1029.56 1110.05 1030C1109.75 1030.43 1109.6 1030.95 1109.6 1031.55C1109.6 1032.14 1109.75 1032.66 1110.06 1033.1ZM1116.04 1030.81C1115.83 1031.01 1115.59 1031.12 1115.31 1031.12C1115.03 1031.12 1114.78 1031.01 1114.57 1030.81C1114.36 1030.6 1114.25 1030.36 1114.25 1030.08C1114.25 1029.81 1114.36 1029.57 1114.57 1029.37C1114.78 1029.16 1115.03 1029.06 1115.31 1029.06C1115.59 1029.06 1115.83 1029.16 1116.04 1029.37C1116.26 1029.57 1116.37 1029.81 1116.37 1030.09C1116.37 1030.36 1116.26 1030.6 1116.04 1030.81ZM1114.8 1030.6C1114.94 1030.74 1115.11 1030.81 1115.31 1030.81C1115.51 1030.81 1115.68 1030.74 1115.81 1030.59C1115.95 1030.45 1116.02 1030.28 1116.02 1030.08C1116.02 1029.89 1115.95 1029.72 1115.81 1029.58C1115.68 1029.44 1115.51 1029.37 1115.31 1029.37C1115.11 1029.37 1114.94 1029.44 1114.8 1029.58C1114.67 1029.73 1114.6 1029.9 1114.6 1030.09C1114.6 1030.29 1114.67 1030.45 1114.8 1030.6Z" fill="#979797"/>
<circle cx="1082" cy="1014" r="16.5" stroke="#C4C4C4"/>
<rect x="1358.68" y="4.2088" width="1" height="392.408" transform="rotate(45.0864 1358.68 4.2088)" fill="#EDEDED"/>
<rect x="1080" y="3.70709" width="1" height="392.408" transform="rotate(-45 1080 3.70709)" fill="#EDEDED"/>
<path d="M1237.23 126C1246.41 135.177 1246.41 150.057 1237.23 159.234C1228.06 168.411 1213.18 168.411 1204 159.234" stroke="#EDEDED"/>
<path d="M1251.25 157V152.443L1250.31 152.765L1250.21 152.478L1251.33 152.065H1251.61V157H1251.25ZM1254.55 157.07C1254.03 157.07 1253.59 156.942 1253.25 156.685C1252.9 156.424 1252.73 156.088 1252.73 155.677C1252.73 155.402 1252.83 155.159 1253.03 154.949C1253.23 154.734 1253.49 154.573 1253.81 154.466C1253.2 154.219 1252.9 153.834 1252.9 153.311C1252.9 152.942 1253.06 152.637 1253.39 152.394C1253.73 152.151 1254.11 152.03 1254.55 152.03C1254.99 152.03 1255.37 152.151 1255.7 152.394C1256.04 152.637 1256.2 152.947 1256.2 153.325C1256.2 153.838 1255.9 154.219 1255.28 154.466C1255.61 154.573 1255.87 154.734 1256.07 154.949C1256.27 155.159 1256.37 155.406 1256.37 155.691C1256.37 156.092 1256.19 156.424 1255.84 156.685C1255.5 156.942 1255.07 157.07 1254.55 157.07ZM1253.5 156.44C1253.76 156.641 1254.11 156.741 1254.55 156.741C1254.99 156.741 1255.34 156.641 1255.6 156.44C1255.86 156.235 1255.99 155.985 1255.99 155.691C1255.99 155.388 1255.85 155.138 1255.57 154.942C1255.29 154.741 1254.95 154.641 1254.55 154.641C1254.14 154.641 1253.8 154.741 1253.52 154.942C1253.25 155.143 1253.11 155.397 1253.11 155.705C1253.11 155.994 1253.24 156.239 1253.5 156.44ZM1253.65 154.053C1253.89 154.24 1254.2 154.333 1254.55 154.333C1254.9 154.333 1255.21 154.24 1255.45 154.053C1255.7 153.862 1255.82 153.614 1255.82 153.311C1255.82 153.036 1255.7 152.809 1255.45 152.632C1255.21 152.45 1254.91 152.359 1254.55 152.359C1254.19 152.359 1253.89 152.45 1253.64 152.632C1253.4 152.814 1253.28 153.045 1253.28 153.325C1253.28 153.619 1253.4 153.862 1253.65 154.053ZM1259.23 157.084C1258.63 157.084 1258.14 156.839 1257.76 156.349C1257.39 155.854 1257.21 155.255 1257.21 154.55C1257.21 154.097 1257.29 153.68 1257.45 153.297C1257.62 152.914 1257.86 152.606 1258.17 152.373C1258.49 152.135 1258.84 152.016 1259.25 152.016C1259.85 152.016 1260.34 152.263 1260.71 152.758C1261.08 153.248 1261.27 153.845 1261.27 154.55C1261.27 155.003 1261.19 155.42 1261.02 155.803C1260.86 156.186 1260.62 156.496 1260.3 156.734C1259.99 156.967 1259.63 157.084 1259.23 157.084ZM1258.05 156.097C1258.36 156.536 1258.76 156.755 1259.25 156.755C1259.74 156.755 1260.13 156.538 1260.44 156.104C1260.74 155.665 1260.89 155.147 1260.89 154.55C1260.89 153.953 1260.74 153.437 1260.43 153.003C1260.12 152.564 1259.72 152.345 1259.23 152.345C1258.74 152.345 1258.35 152.562 1258.04 152.996C1257.74 153.43 1257.59 153.948 1257.59 154.55C1257.59 155.143 1257.74 155.658 1258.05 156.097ZM1264.03 153.808C1263.82 154.013 1263.58 154.116 1263.3 154.116C1263.02 154.116 1262.77 154.013 1262.56 153.808C1262.35 153.603 1262.24 153.36 1262.24 153.08C1262.24 152.809 1262.35 152.571 1262.56 152.366C1262.77 152.161 1263.02 152.058 1263.3 152.058C1263.58 152.058 1263.82 152.161 1264.03 152.366C1264.25 152.571 1264.36 152.814 1264.36 153.094C1264.36 153.365 1264.25 153.603 1264.03 153.808ZM1262.79 153.598C1262.93 153.738 1263.1 153.808 1263.3 153.808C1263.5 153.808 1263.67 153.736 1263.8 153.591C1263.94 153.446 1264.01 153.276 1264.01 153.08C1264.01 152.889 1263.94 152.723 1263.8 152.583C1263.67 152.438 1263.5 152.366 1263.3 152.366C1263.1 152.366 1262.93 152.438 1262.79 152.583C1262.66 152.728 1262.59 152.898 1262.59 153.094C1262.59 153.285 1262.66 153.453 1262.79 153.598Z" fill="#A8A8A8"/>
<rect x="246" width="1" height="1161" fill="#EDEDED"/>
<rect x="527" width="1" height="1161" fill="#EDEDED"/>
<rect x="805" width="1" height="1161" fill="#EDEDED"/>
<rect x="1081" width="1" height="1162" fill="#EDEDED"/>
<rect x="1360" y="1" width="1" height="1161" fill="#EDEDED"/>
<rect x="677.5" y="1141.5" width="278" height="20" fill="#EFEFEF" stroke="#B1B1B1"/>
<rect x="697.537" y="1141.12" width="0.938354" height="27.6286" transform="rotate(45 697.537 1141.12)" fill="#B1B1B1"/>
<rect x="687.537" y="1141" width="0.938354" height="14.7812" transform="rotate(45 687.537 1141)" fill="#B1B1B1"/>
<rect x="955.449" y="1151" width="0.938354" height="14.7812" transform="rotate(45 955.449 1151)" fill="#B1B1B1"/>
<rect x="707.611" y="1141.12" width="0.938354" height="27.6286" transform="rotate(45 707.611 1141.12)" fill="#B1B1B1"/>
<rect x="717.934" y="1141.12" width="0.938354" height="27.6286" transform="rotate(45 717.934 1141.12)" fill="#B1B1B1"/>
<rect x="728.256" y="1141.12" width="0.938354" height="27.6286" transform="rotate(45 728.256 1141.12)" fill="#B1B1B1"/>
<rect x="738.576" y="1141.12" width="0.938354" height="27.6286" transform="rotate(45 738.576 1141.12)" fill="#B1B1B1"/>
<rect x="748.898" y="1141.12" width="0.938354" height="27.6286" transform="rotate(45 748.898 1141.12)" fill="#B1B1B1"/>
<rect x="759.221" y="1141.12" width="0.938354" height="27.6286" transform="rotate(45 759.221 1141.12)" fill="#B1B1B1"/>
<rect x="769.541" y="1141.12" width="0.938354" height="27.6286" transform="rotate(45 769.541 1141.12)" fill="#B1B1B1"/>
<rect x="779.865" y="1141.12" width="0.938354" height="27.6286" transform="rotate(45 779.865 1141.12)" fill="#B1B1B1"/>
<rect x="790.186" y="1141.12" width="0.938354" height="27.6286" transform="rotate(45 790.186 1141.12)" fill="#B1B1B1"/>
<rect x="800.51" y="1141.12" width="0.938354" height="27.6286" transform="rotate(45 800.51 1141.12)" fill="#B1B1B1"/>
<rect x="810.83" y="1141.12" width="0.938354" height="27.6286" transform="rotate(45 810.83 1141.12)" fill="#B1B1B1"/>
<rect x="821.152" y="1141.12" width="0.938354" height="27.6286" transform="rotate(45 821.152 1141.12)" fill="#B1B1B1"/>
<rect x="831.475" y="1141.12" width="0.938354" height="27.6286" transform="rotate(45 831.475 1141.12)" fill="#B1B1B1"/>
<rect x="841.795" y="1141.12" width="0.938354" height="27.6286" transform="rotate(45 841.795 1141.12)" fill="#B1B1B1"/>
<rect x="852.117" y="1141.12" width="0.938354" height="27.6286" transform="rotate(45 852.117 1141.12)" fill="#B1B1B1"/>
<rect x="862.439" y="1141.12" width="0.938354" height="27.6286" transform="rotate(45 862.439 1141.12)" fill="#B1B1B1"/>
<rect x="872.762" y="1141.12" width="0.938354" height="27.6286" transform="rotate(45 872.762 1141.12)" fill="#B1B1B1"/>
<rect x="883.084" y="1141.12" width="0.938354" height="27.6286" transform="rotate(45 883.084 1141.12)" fill="#B1B1B1"/>
<rect x="893.406" y="1141.12" width="0.938354" height="27.6286" transform="rotate(45 893.406 1141.12)" fill="#B1B1B1"/>
<rect x="903.727" y="1141.12" width="0.938354" height="27.6286" transform="rotate(45 903.727 1141.12)" fill="#B1B1B1"/>
<rect x="914.051" y="1141.12" width="0.938354" height="27.6286" transform="rotate(45 914.051 1141.12)" fill="#B1B1B1"/>
<rect x="924.371" y="1141.12" width="0.938354" height="27.6286" transform="rotate(45 924.371 1141.12)" fill="#B1B1B1"/>
<rect x="934.691" y="1141.12" width="0.938354" height="27.6286" transform="rotate(45 934.691 1141.12)" fill="#B1B1B1"/>
<rect x="945.016" y="1141.12" width="0.938354" height="27.6286" transform="rotate(45 945.016 1141.12)" fill="#B1B1B1"/>
<rect x="955.336" y="1141.12" width="0.938354" height="27.6286" transform="rotate(45 955.336 1141.12)" fill="#B1B1B1"/>
</svg>
