<svg width="1600" height="723" viewBox="0 0 1600 723" fill="none" xmlns="http://www.w3.org/2000/svg">
<rect x="272" y="-1" width="1" height="706" fill="#EDEDED"/>
<rect x="549" y="-1" width="1" height="706" fill="#EDEDED"/>
<rect x="827" y="-1" width="1" height="706" fill="#EDEDED"/>
<rect x="1105" y="-1" width="1" height="706" fill="#EDEDED"/>
<rect y="180" width="1" height="1600" transform="rotate(-90 0 180)" fill="#EDEDED"/>
<rect x="1379" width="1" height="706" fill="#EDEDED"/>
<rect y="426" width="1" height="1600" transform="rotate(-90 0 426)" fill="#EDEDED"/>
<rect x="-1" y="706" width="1" height="1600" transform="rotate(-90 -1 706)" fill="#EDEDED"/>
<rect x="1105.68" y="427.209" width="1" height="392.408" transform="rotate(45.0864 1105.68 427.209)" fill="#EDEDED"/>
<rect x="827" y="426.707" width="1" height="392.408" transform="rotate(-45 827 426.707)" fill="#EDEDED"/>
<path d="M984.234 549C993.411 558.177 993.411 573.057 984.234 582.234C975.057 591.411 960.177 591.411 951 582.234" stroke="#C4C4C4"/>
<path d="M1113.5 179V187.5H1105" stroke="#C4C4C4"/>
<path d="M1118.05 196.084C1117.55 196.084 1117.05 195.881 1116.57 195.475L1116.81 195.195C1117.22 195.568 1117.64 195.755 1118.06 195.755C1118.53 195.755 1118.92 195.536 1119.23 195.097C1119.53 194.654 1119.68 194.087 1119.68 193.396V193.228C1119.33 193.858 1118.82 194.173 1118.16 194.173C1117.67 194.173 1117.26 194.028 1116.94 193.739C1116.62 193.45 1116.46 193.09 1116.46 192.661C1116.46 192.199 1116.62 191.809 1116.95 191.492C1117.27 191.175 1117.68 191.016 1118.18 191.016C1118.68 191.016 1119.1 191.182 1119.43 191.513C1119.84 191.924 1120.05 192.565 1120.05 193.438C1120.05 194.203 1119.86 194.836 1119.48 195.335C1119.1 195.834 1118.63 196.084 1118.05 196.084ZM1118.17 193.851C1118.57 193.851 1118.9 193.725 1119.15 193.473C1119.41 193.216 1119.53 192.922 1119.53 192.591C1119.53 192.241 1119.4 191.947 1119.14 191.709C1118.87 191.466 1118.54 191.345 1118.14 191.345C1117.75 191.345 1117.44 191.476 1117.2 191.737C1116.96 191.994 1116.84 192.302 1116.84 192.661C1116.84 193.006 1116.96 193.291 1117.21 193.515C1117.46 193.739 1117.78 193.851 1118.17 193.851ZM1122.97 196.084C1122.36 196.084 1121.87 195.839 1121.5 195.349C1121.13 194.854 1120.95 194.255 1120.95 193.55C1120.95 193.097 1121.03 192.68 1121.19 192.297C1121.35 191.914 1121.59 191.606 1121.91 191.373C1122.22 191.135 1122.58 191.016 1122.98 191.016C1123.59 191.016 1124.08 191.263 1124.45 191.758C1124.82 192.248 1125.01 192.845 1125.01 193.55C1125.01 194.003 1124.92 194.42 1124.76 194.803C1124.6 195.186 1124.36 195.496 1124.04 195.734C1123.73 195.967 1123.37 196.084 1122.97 196.084ZM1121.79 195.097C1122.09 195.536 1122.49 195.755 1122.98 195.755C1123.47 195.755 1123.87 195.538 1124.17 195.104C1124.48 194.665 1124.63 194.147 1124.63 193.55C1124.63 192.953 1124.47 192.437 1124.17 192.003C1123.86 191.564 1123.46 191.345 1122.97 191.345C1122.48 191.345 1122.08 191.562 1121.78 191.996C1121.48 192.43 1121.32 192.948 1121.32 193.55C1121.32 194.143 1121.48 194.658 1121.79 195.097ZM1127.77 192.808C1127.56 193.013 1127.32 193.116 1127.04 193.116C1126.76 193.116 1126.51 193.013 1126.29 192.808C1126.08 192.603 1125.98 192.36 1125.98 192.08C1125.98 191.809 1126.08 191.571 1126.29 191.366C1126.51 191.161 1126.76 191.058 1127.04 191.058C1127.32 191.058 1127.56 191.161 1127.77 191.366C1127.99 191.571 1128.09 191.814 1128.09 192.094C1128.09 192.365 1127.99 192.603 1127.77 192.808ZM1126.53 192.598C1126.67 192.738 1126.84 192.808 1127.04 192.808C1127.24 192.808 1127.4 192.736 1127.54 192.591C1127.68 192.446 1127.74 192.276 1127.74 192.08C1127.74 191.889 1127.68 191.723 1127.54 191.583C1127.4 191.438 1127.24 191.366 1127.04 191.366C1126.84 191.366 1126.67 191.438 1126.53 191.583C1126.4 191.728 1126.33 191.898 1126.33 192.094C1126.33 192.285 1126.4 192.453 1126.53 192.598Z" fill="#979797"/>
<rect x="549.348" y="426.946" width="1" height="392.408" transform="rotate(45 549.348 426.946)" fill="#EDEDED"/>
<rect x="827.5" y="159.5" width="278" height="20" fill="#EFEFEF" stroke="#B1B1B1"/>
<rect x="847.537" y="159.12" width="0.938354" height="27.6286" transform="rotate(45 847.537 159.12)" fill="#B1B1B1"/>
<rect x="837.537" y="159" width="0.938354" height="14.7812" transform="rotate(45 837.537 159)" fill="#B1B1B1"/>
<rect x="1105.45" y="169" width="0.938354" height="14.7812" transform="rotate(45 1105.45 169)" fill="#B1B1B1"/>
<rect x="857.611" y="159.12" width="0.938354" height="27.6286" transform="rotate(45 857.611 159.12)" fill="#B1B1B1"/>
<rect x="867.934" y="159.12" width="0.938354" height="27.6286" transform="rotate(45 867.934 159.12)" fill="#B1B1B1"/>
<rect x="878.256" y="159.12" width="0.938354" height="27.6286" transform="rotate(45 878.256 159.12)" fill="#B1B1B1"/>
<rect x="888.576" y="159.12" width="0.938354" height="27.6286" transform="rotate(45 888.576 159.12)" fill="#B1B1B1"/>
<rect x="898.898" y="159.12" width="0.938354" height="27.6286" transform="rotate(45 898.898 159.12)" fill="#B1B1B1"/>
<rect x="909.221" y="159.12" width="0.938354" height="27.6286" transform="rotate(45 909.221 159.12)" fill="#B1B1B1"/>
<rect x="919.541" y="159.12" width="0.938354" height="27.6286" transform="rotate(45 919.541 159.12)" fill="#B1B1B1"/>
<rect x="929.865" y="159.12" width="0.938354" height="27.6286" transform="rotate(45 929.865 159.12)" fill="#B1B1B1"/>
<rect x="940.186" y="159.12" width="0.938354" height="27.6286" transform="rotate(45 940.186 159.12)" fill="#B1B1B1"/>
<rect x="950.51" y="159.12" width="0.938354" height="27.6286" transform="rotate(45 950.51 159.12)" fill="#B1B1B1"/>
<rect x="960.83" y="159.12" width="0.938354" height="27.6286" transform="rotate(45 960.83 159.12)" fill="#B1B1B1"/>
<rect x="971.152" y="159.12" width="0.938354" height="27.6286" transform="rotate(45 971.152 159.12)" fill="#B1B1B1"/>
<rect x="981.475" y="159.12" width="0.938354" height="27.6286" transform="rotate(45 981.475 159.12)" fill="#B1B1B1"/>
<rect x="991.795" y="159.12" width="0.938354" height="27.6286" transform="rotate(45 991.795 159.12)" fill="#B1B1B1"/>
<rect x="1002.12" y="159.12" width="0.938354" height="27.6286" transform="rotate(45 1002.12 159.12)" fill="#B1B1B1"/>
<rect x="1012.44" y="159.12" width="0.938354" height="27.6286" transform="rotate(45 1012.44 159.12)" fill="#B1B1B1"/>
<rect x="1022.76" y="159.12" width="0.938354" height="27.6286" transform="rotate(45 1022.76 159.12)" fill="#B1B1B1"/>
<rect x="1033.08" y="159.12" width="0.938354" height="27.6286" transform="rotate(45 1033.08 159.12)" fill="#B1B1B1"/>
<rect x="1043.41" y="159.12" width="0.938354" height="27.6286" transform="rotate(45 1043.41 159.12)" fill="#B1B1B1"/>
<rect x="1053.73" y="159.12" width="0.938354" height="27.6286" transform="rotate(45 1053.73 159.12)" fill="#B1B1B1"/>
<rect x="1064.05" y="159.12" width="0.938354" height="27.6286" transform="rotate(45 1064.05 159.12)" fill="#B1B1B1"/>
<rect x="1074.37" y="159.12" width="0.938354" height="27.6286" transform="rotate(45 1074.37 159.12)" fill="#B1B1B1"/>
<rect x="1084.69" y="159.12" width="0.938354" height="27.6286" transform="rotate(45 1084.69 159.12)" fill="#B1B1B1"/>
<rect x="1095.02" y="159.12" width="0.938354" height="27.6286" transform="rotate(45 1095.02 159.12)" fill="#B1B1B1"/>
<rect x="1105.34" y="159.12" width="0.938354" height="27.6286" transform="rotate(45 1105.34 159.12)" fill="#B1B1B1"/>
<rect x="1146" y="179" width="1" height="247" fill="#EDEDED"/>
<rect x="737" y="180" width="1" height="247" fill="#EDEDED"/>
<rect x="827" y="160" width="1" height="773" transform="rotate(-90 827 160)" fill="#EDEDED"/>
<path d="M285 705.5C285 712.404 279.404 718 272.5 718C265.596 718 260 712.404 260 705.5C260 698.596 265.596 693 272.5 693" stroke="#C4C4C4"/>
<path d="M241.336 720V719.727L243.163 718.075C243.569 717.706 243.851 717.401 244.01 717.158C244.169 716.911 244.248 716.659 244.248 716.402C244.248 716.094 244.138 715.842 243.919 715.646C243.704 715.45 243.445 715.352 243.142 715.352C242.843 715.352 242.582 715.427 242.358 715.576C242.139 715.725 241.922 715.954 241.707 716.262L241.434 716.08C241.667 715.725 241.915 715.462 242.176 715.289C242.437 715.116 242.771 715.03 243.177 715.03C243.592 715.03 243.938 715.161 244.213 715.422C244.493 715.679 244.633 716.001 244.633 716.388C244.633 716.71 244.542 717.004 244.36 717.27C244.183 717.536 243.865 717.877 243.408 718.292L241.91 719.65H244.682V720H241.336ZM246.118 720L248.344 715.45H245.502V715.1H248.75V715.366L246.517 720H246.118ZM251.476 720.084C250.869 720.084 250.379 719.839 250.006 719.349C249.637 718.854 249.453 718.255 249.453 717.55C249.453 717.097 249.535 716.68 249.698 716.297C249.861 715.914 250.099 715.606 250.412 715.373C250.729 715.135 251.089 715.016 251.49 715.016C252.097 715.016 252.584 715.263 252.953 715.758C253.326 716.248 253.513 716.845 253.513 717.55C253.513 718.003 253.431 718.42 253.268 718.803C253.105 719.186 252.864 719.496 252.547 719.734C252.234 719.967 251.877 720.084 251.476 720.084ZM250.293 719.097C250.601 719.536 251 719.755 251.49 719.755C251.98 719.755 252.377 719.538 252.68 719.104C252.983 718.665 253.135 718.147 253.135 717.55C253.135 716.953 252.981 716.437 252.673 716.003C252.365 715.564 251.966 715.345 251.476 715.345C250.986 715.345 250.589 715.562 250.286 715.996C249.983 716.43 249.831 716.948 249.831 717.55C249.831 718.143 249.985 718.658 250.293 719.097ZM256.278 716.808C256.068 717.013 255.823 717.116 255.543 717.116C255.263 717.116 255.015 717.013 254.801 716.808C254.591 716.603 254.486 716.36 254.486 716.08C254.486 715.809 254.591 715.571 254.801 715.366C255.015 715.161 255.263 715.058 255.543 715.058C255.823 715.058 256.068 715.161 256.278 715.366C256.492 715.571 256.6 715.814 256.6 716.094C256.6 716.365 256.492 716.603 256.278 716.808ZM255.039 716.598C255.174 716.738 255.342 716.808 255.543 716.808C255.743 716.808 255.911 716.736 256.047 716.591C256.182 716.446 256.25 716.276 256.25 716.08C256.25 715.889 256.182 715.723 256.047 715.583C255.911 715.438 255.743 715.366 255.543 715.366C255.342 715.366 255.174 715.438 255.039 715.583C254.903 715.728 254.836 715.898 254.836 716.094C254.836 716.285 254.903 716.453 255.039 716.598Z" fill="#979797"/>
<rect x="1579.5" y="424.5" width="245" height="20" transform="rotate(-90 1579.5 424.5)" fill="#EFEFEF" stroke="#B1B1B1"/>
<rect x="1589" y="179.664" width="0.938354" height="14.7812" transform="rotate(-45 1589 179.664)" fill="#B1B1B1"/>
<rect x="1579.12" y="417.18" width="0.938354" height="10.8572" transform="rotate(-45 1579.12 417.18)" fill="#B1B1B1"/>
<rect x="1579.12" y="406.858" width="0.938354" height="25.2476" transform="rotate(-45 1579.12 406.858)" fill="#B1B1B1"/>
<rect x="1579.12" y="396.537" width="0.938354" height="27.6286" transform="rotate(-45 1579.12 396.537)" fill="#B1B1B1"/>
<rect x="1579.12" y="386.214" width="0.938354" height="27.6286" transform="rotate(-45 1579.12 386.214)" fill="#B1B1B1"/>
<rect x="1579.12" y="375.893" width="0.938354" height="27.6286" transform="rotate(-45 1579.12 375.893)" fill="#B1B1B1"/>
<rect x="1579.12" y="365.572" width="0.938354" height="27.6286" transform="rotate(-45 1579.12 365.572)" fill="#B1B1B1"/>
<rect x="1579.12" y="355.249" width="0.938354" height="27.6286" transform="rotate(-45 1579.12 355.249)" fill="#B1B1B1"/>
<rect x="1579.12" y="344.927" width="0.938354" height="27.6286" transform="rotate(-45 1579.12 344.927)" fill="#B1B1B1"/>
<rect x="1579.12" y="334.604" width="0.938354" height="27.6286" transform="rotate(-45 1579.12 334.604)" fill="#B1B1B1"/>
<rect x="1579.12" y="324.283" width="0.938354" height="27.6286" transform="rotate(-45 1579.12 324.283)" fill="#B1B1B1"/>
<rect x="1579.12" y="313.962" width="0.938354" height="27.6286" transform="rotate(-45 1579.12 313.962)" fill="#B1B1B1"/>
<rect x="1579.12" y="303.639" width="0.938354" height="27.6286" transform="rotate(-45 1579.12 303.639)" fill="#B1B1B1"/>
<rect x="1579.12" y="293.318" width="0.938354" height="27.6286" transform="rotate(-45 1579.12 293.318)" fill="#B1B1B1"/>
<rect x="1579.12" y="282.997" width="0.938354" height="27.6286" transform="rotate(-45 1579.12 282.997)" fill="#B1B1B1"/>
<rect x="1579.12" y="272.673" width="0.938354" height="27.6286" transform="rotate(-45 1579.12 272.673)" fill="#B1B1B1"/>
<rect x="1579.12" y="262.352" width="0.938354" height="27.6286" transform="rotate(-45 1579.12 262.352)" fill="#B1B1B1"/>
<rect x="1579.12" y="252.029" width="0.938354" height="27.6286" transform="rotate(-45 1579.12 252.029)" fill="#B1B1B1"/>
<rect x="1579.12" y="241.708" width="0.938354" height="27.6286" transform="rotate(-45 1579.12 241.708)" fill="#B1B1B1"/>
<rect x="1579.12" y="231.387" width="0.938354" height="27.6286" transform="rotate(-45 1579.12 231.387)" fill="#B1B1B1"/>
<rect x="1579.12" y="221.063" width="0.938354" height="27.6286" transform="rotate(-45 1579.12 221.063)" fill="#B1B1B1"/>
<rect x="1579.12" y="210.742" width="0.938354" height="27.6286" transform="rotate(-45 1579.12 210.742)" fill="#B1B1B1"/>
<rect x="1579.12" y="200.421" width="0.938354" height="27.6286" transform="rotate(-45 1579.12 200.421)" fill="#B1B1B1"/>
<rect x="1579.12" y="190.098" width="0.938354" height="27.6286" transform="rotate(-45 1579.12 190.098)" fill="#B1B1B1"/>
<rect x="1579.12" y="179.777" width="0.938354" height="27.6286" transform="rotate(-45 1579.12 179.777)" fill="#B1B1B1"/>
<path d="M805.051 672.084C804.547 672.084 804.055 671.881 803.574 671.475L803.805 671.195C804.22 671.568 804.638 671.755 805.058 671.755C805.534 671.755 805.924 671.536 806.227 671.097C806.53 670.654 806.682 670.087 806.682 669.396V669.228C806.332 669.858 805.823 670.173 805.156 670.173C804.666 670.173 804.26 670.028 803.938 669.739C803.621 669.45 803.462 669.09 803.462 668.661C803.462 668.199 803.623 667.809 803.945 667.492C804.267 667.175 804.68 667.016 805.184 667.016C805.683 667.016 806.099 667.182 806.43 667.513C806.841 667.924 807.046 668.565 807.046 669.438C807.046 670.203 806.857 670.836 806.479 671.335C806.101 671.834 805.625 672.084 805.051 672.084ZM805.17 669.851C805.571 669.851 805.898 669.725 806.15 669.473C806.407 669.216 806.535 668.922 806.535 668.591C806.535 668.241 806.402 667.947 806.136 667.709C805.875 667.466 805.543 667.345 805.142 667.345C804.755 667.345 804.44 667.476 804.197 667.737C803.959 667.994 803.84 668.302 803.84 668.661C803.84 669.006 803.964 669.291 804.211 669.515C804.463 669.739 804.783 669.851 805.17 669.851ZM809.969 672.084C809.363 672.084 808.873 671.839 808.499 671.349C808.131 670.854 807.946 670.255 807.946 669.55C807.946 669.097 808.028 668.68 808.191 668.297C808.355 667.914 808.593 667.606 808.905 667.373C809.223 667.135 809.582 667.016 809.983 667.016C810.59 667.016 811.078 667.263 811.446 667.758C811.82 668.248 812.006 668.845 812.006 669.55C812.006 670.003 811.925 670.42 811.761 670.803C811.598 671.186 811.358 671.496 811.04 671.734C810.728 671.967 810.371 672.084 809.969 672.084ZM808.786 671.097C809.094 671.536 809.493 671.755 809.983 671.755C810.473 671.755 810.87 671.538 811.173 671.104C811.477 670.665 811.628 670.147 811.628 669.55C811.628 668.953 811.474 668.437 811.166 668.003C810.858 667.564 810.459 667.345 809.969 667.345C809.479 667.345 809.083 667.562 808.779 667.996C808.476 668.43 808.324 668.948 808.324 669.55C808.324 670.143 808.478 670.658 808.786 671.097ZM814.771 668.808C814.561 669.013 814.316 669.116 814.036 669.116C813.756 669.116 813.509 669.013 813.294 668.808C813.084 668.603 812.979 668.36 812.979 668.08C812.979 667.809 813.084 667.571 813.294 667.366C813.509 667.161 813.756 667.058 814.036 667.058C814.316 667.058 814.561 667.161 814.771 667.366C814.986 667.571 815.093 667.814 815.093 668.094C815.093 668.365 814.986 668.603 814.771 668.808ZM813.532 668.598C813.667 668.738 813.835 668.808 814.036 668.808C814.237 668.808 814.405 668.736 814.54 668.591C814.675 668.446 814.743 668.276 814.743 668.08C814.743 667.889 814.675 667.723 814.54 667.583C814.405 667.438 814.237 667.366 814.036 667.366C813.835 667.366 813.667 667.438 813.532 667.583C813.397 667.728 813.329 667.898 813.329 668.094C813.329 668.285 813.397 668.453 813.532 668.598Z" fill="#979797"/>
<path d="M565.051 672.084C564.547 672.084 564.055 671.881 563.574 671.475L563.805 671.195C564.22 671.568 564.638 671.755 565.058 671.755C565.534 671.755 565.924 671.536 566.227 671.097C566.53 670.654 566.682 670.087 566.682 669.396V669.228C566.332 669.858 565.823 670.173 565.156 670.173C564.666 670.173 564.26 670.028 563.938 669.739C563.621 669.45 563.462 669.09 563.462 668.661C563.462 668.199 563.623 667.809 563.945 667.492C564.267 667.175 564.68 667.016 565.184 667.016C565.683 667.016 566.099 667.182 566.43 667.513C566.841 667.924 567.046 668.565 567.046 669.438C567.046 670.203 566.857 670.836 566.479 671.335C566.101 671.834 565.625 672.084 565.051 672.084ZM565.17 669.851C565.571 669.851 565.898 669.725 566.15 669.473C566.407 669.216 566.535 668.922 566.535 668.591C566.535 668.241 566.402 667.947 566.136 667.709C565.875 667.466 565.543 667.345 565.142 667.345C564.755 667.345 564.44 667.476 564.197 667.737C563.959 667.994 563.84 668.302 563.84 668.661C563.84 669.006 563.964 669.291 564.211 669.515C564.463 669.739 564.783 669.851 565.17 669.851ZM569.969 672.084C569.363 672.084 568.873 671.839 568.499 671.349C568.131 670.854 567.946 670.255 567.946 669.55C567.946 669.097 568.028 668.68 568.191 668.297C568.355 667.914 568.593 667.606 568.905 667.373C569.223 667.135 569.582 667.016 569.983 667.016C570.59 667.016 571.078 667.263 571.446 667.758C571.82 668.248 572.006 668.845 572.006 669.55C572.006 670.003 571.925 670.42 571.761 670.803C571.598 671.186 571.358 671.496 571.04 671.734C570.728 671.967 570.371 672.084 569.969 672.084ZM568.786 671.097C569.094 671.536 569.493 671.755 569.983 671.755C570.473 671.755 570.87 671.538 571.173 671.104C571.477 670.665 571.628 670.147 571.628 669.55C571.628 668.953 571.474 668.437 571.166 668.003C570.858 667.564 570.459 667.345 569.969 667.345C569.479 667.345 569.083 667.562 568.779 667.996C568.476 668.43 568.324 668.948 568.324 669.55C568.324 670.143 568.478 670.658 568.786 671.097ZM574.771 668.808C574.561 669.013 574.316 669.116 574.036 669.116C573.756 669.116 573.509 669.013 573.294 668.808C573.084 668.603 572.979 668.36 572.979 668.08C572.979 667.809 573.084 667.571 573.294 667.366C573.509 667.161 573.756 667.058 574.036 667.058C574.316 667.058 574.561 667.161 574.771 667.366C574.986 667.571 575.093 667.814 575.093 668.094C575.093 668.365 574.986 668.603 574.771 668.808ZM573.532 668.598C573.667 668.738 573.835 668.808 574.036 668.808C574.237 668.808 574.405 668.736 574.54 668.591C574.675 668.446 574.743 668.276 574.743 668.08C574.743 667.889 574.675 667.723 574.54 667.583C574.405 667.438 574.237 667.366 574.036 667.366C573.835 667.366 573.667 667.438 573.532 667.583C573.397 667.728 573.329 667.898 573.329 668.094C573.329 668.285 573.397 668.453 573.532 668.598Z" fill="#979797"/>
<path d="M815 684.5C815 677.596 820.596 672 827.5 672" stroke="#C4C4C4"/>
<path d="M550 673C556.904 673 562.5 678.596 562.5 685.5" stroke="#C4C4C4"/>
<rect x="549.5" y="685.5" width="278" height="20" fill="#EFEFEF" stroke="#B1B1B1"/>
<rect x="569.537" y="685.12" width="0.938354" height="27.6286" transform="rotate(45 569.537 685.12)" fill="#B1B1B1"/>
<rect x="559.537" y="685" width="0.938354" height="14.7812" transform="rotate(45 559.537 685)" fill="#B1B1B1"/>
<rect x="827.449" y="695" width="0.938354" height="14.7812" transform="rotate(45 827.449 695)" fill="#B1B1B1"/>
<rect x="579.611" y="685.12" width="0.938354" height="27.6286" transform="rotate(45 579.611 685.12)" fill="#B1B1B1"/>
<rect x="589.934" y="685.12" width="0.938354" height="27.6286" transform="rotate(45 589.934 685.12)" fill="#B1B1B1"/>
<rect x="600.256" y="685.12" width="0.938354" height="27.6286" transform="rotate(45 600.256 685.12)" fill="#B1B1B1"/>
<rect x="610.576" y="685.12" width="0.938354" height="27.6286" transform="rotate(45 610.576 685.12)" fill="#B1B1B1"/>
<rect x="620.898" y="685.12" width="0.938354" height="27.6286" transform="rotate(45 620.898 685.12)" fill="#B1B1B1"/>
<rect x="631.221" y="685.12" width="0.938354" height="27.6286" transform="rotate(45 631.221 685.12)" fill="#B1B1B1"/>
<rect x="641.541" y="685.12" width="0.938354" height="27.6286" transform="rotate(45 641.541 685.12)" fill="#B1B1B1"/>
<rect x="651.865" y="685.12" width="0.938354" height="27.6286" transform="rotate(45 651.865 685.12)" fill="#B1B1B1"/>
<rect x="662.186" y="685.12" width="0.938354" height="27.6286" transform="rotate(45 662.186 685.12)" fill="#B1B1B1"/>
<rect x="672.51" y="685.12" width="0.938354" height="27.6286" transform="rotate(45 672.51 685.12)" fill="#B1B1B1"/>
<rect x="682.83" y="685.12" width="0.938354" height="27.6286" transform="rotate(45 682.83 685.12)" fill="#B1B1B1"/>
<rect x="693.152" y="685.12" width="0.938354" height="27.6286" transform="rotate(45 693.152 685.12)" fill="#B1B1B1"/>
<rect x="703.475" y="685.12" width="0.938354" height="27.6286" transform="rotate(45 703.475 685.12)" fill="#B1B1B1"/>
<rect x="713.795" y="685.12" width="0.938354" height="27.6286" transform="rotate(45 713.795 685.12)" fill="#B1B1B1"/>
<rect x="724.117" y="685.12" width="0.938354" height="27.6286" transform="rotate(45 724.117 685.12)" fill="#B1B1B1"/>
<rect x="734.439" y="685.12" width="0.938354" height="27.6286" transform="rotate(45 734.439 685.12)" fill="#B1B1B1"/>
<rect x="744.762" y="685.12" width="0.938354" height="27.6286" transform="rotate(45 744.762 685.12)" fill="#B1B1B1"/>
<rect x="755.084" y="685.12" width="0.938354" height="27.6286" transform="rotate(45 755.084 685.12)" fill="#B1B1B1"/>
<rect x="765.406" y="685.12" width="0.938354" height="27.6286" transform="rotate(45 765.406 685.12)" fill="#B1B1B1"/>
<rect x="775.727" y="685.12" width="0.938354" height="27.6286" transform="rotate(45 775.727 685.12)" fill="#B1B1B1"/>
<rect x="786.051" y="685.12" width="0.938354" height="27.6286" transform="rotate(45 786.051 685.12)" fill="#B1B1B1"/>
<rect x="796.371" y="685.12" width="0.938354" height="27.6286" transform="rotate(45 796.371 685.12)" fill="#B1B1B1"/>
<rect x="806.691" y="685.12" width="0.938354" height="27.6286" transform="rotate(45 806.691 685.12)" fill="#B1B1B1"/>
<rect x="817.016" y="685.12" width="0.938354" height="27.6286" transform="rotate(45 817.016 685.12)" fill="#B1B1B1"/>
<rect x="827.336" y="685.12" width="0.938354" height="27.6286" transform="rotate(45 827.336 685.12)" fill="#B1B1B1"/>
</svg>
