<svg width="1600" height="699" viewBox="0 0 1600 699" fill="none" xmlns="http://www.w3.org/2000/svg">
<rect x="272" y="2" width="1" height="696" fill="#EDEDED"/>
<rect x="549" y="2" width="1" height="696" fill="#EDEDED"/>
<rect x="827" y="2" width="1" height="696" fill="#EDEDED"/>
<rect x="1105" y="2" width="1" height="696" fill="#EDEDED"/>
<rect y="183" width="1" height="1600" transform="rotate(-90 0 183)" fill="#EDEDED"/>
<rect x="1379" y="3" width="1" height="696" fill="#EDEDED"/>
<rect y="429" width="1" height="1600" transform="rotate(-90 0 429)" fill="#EDEDED"/>
<rect x="1383.68" y="1.20874" width="1" height="392.408" transform="rotate(45.0864 1383.68 1.20874)" fill="#EDEDED"/>
<rect x="1105" y="0.707031" width="1" height="392.408" transform="rotate(-45 1105 0.707031)" fill="#EDEDED"/>
<path d="M1262.23 123C1271.41 132.177 1271.41 147.057 1262.23 156.234C1253.06 165.411 1238.18 165.411 1229 156.234" stroke="#C4C4C4"/>
<path d="M1276.25 154V149.443L1275.31 149.765L1275.21 149.478L1276.33 149.065H1276.61V154H1276.25ZM1279.55 154.07C1279.03 154.07 1278.59 153.942 1278.25 153.685C1277.9 153.424 1277.73 153.088 1277.73 152.677C1277.73 152.402 1277.83 152.159 1278.03 151.949C1278.23 151.734 1278.49 151.573 1278.81 151.466C1278.2 151.219 1277.9 150.834 1277.9 150.311C1277.9 149.942 1278.06 149.637 1278.39 149.394C1278.73 149.151 1279.11 149.03 1279.55 149.03C1279.99 149.03 1280.37 149.151 1280.7 149.394C1281.04 149.637 1281.2 149.947 1281.2 150.325C1281.2 150.838 1280.9 151.219 1280.28 151.466C1280.61 151.573 1280.87 151.734 1281.07 151.949C1281.27 152.159 1281.37 152.406 1281.37 152.691C1281.37 153.092 1281.19 153.424 1280.84 153.685C1280.5 153.942 1280.07 154.07 1279.55 154.07ZM1278.5 153.44C1278.76 153.641 1279.11 153.741 1279.55 153.741C1279.99 153.741 1280.34 153.641 1280.6 153.44C1280.86 153.235 1280.99 152.985 1280.99 152.691C1280.99 152.388 1280.85 152.138 1280.57 151.942C1280.29 151.741 1279.95 151.641 1279.55 151.641C1279.14 151.641 1278.8 151.741 1278.52 151.942C1278.25 152.143 1278.11 152.397 1278.11 152.705C1278.11 152.994 1278.24 153.239 1278.5 153.44ZM1278.65 151.053C1278.89 151.24 1279.2 151.333 1279.55 151.333C1279.9 151.333 1280.21 151.24 1280.45 151.053C1280.7 150.862 1280.82 150.614 1280.82 150.311C1280.82 150.036 1280.7 149.809 1280.45 149.632C1280.21 149.45 1279.91 149.359 1279.55 149.359C1279.19 149.359 1278.89 149.45 1278.64 149.632C1278.4 149.814 1278.28 150.045 1278.28 150.325C1278.28 150.619 1278.4 150.862 1278.65 151.053ZM1284.23 154.084C1283.63 154.084 1283.14 153.839 1282.76 153.349C1282.39 152.854 1282.21 152.255 1282.21 151.55C1282.21 151.097 1282.29 150.68 1282.45 150.297C1282.62 149.914 1282.86 149.606 1283.17 149.373C1283.49 149.135 1283.84 149.016 1284.25 149.016C1284.85 149.016 1285.34 149.263 1285.71 149.758C1286.08 150.248 1286.27 150.845 1286.27 151.55C1286.27 152.003 1286.19 152.42 1286.02 152.803C1285.86 153.186 1285.62 153.496 1285.3 153.734C1284.99 153.967 1284.63 154.084 1284.23 154.084ZM1283.05 153.097C1283.36 153.536 1283.76 153.755 1284.25 153.755C1284.74 153.755 1285.13 153.538 1285.44 153.104C1285.74 152.665 1285.89 152.147 1285.89 151.55C1285.89 150.953 1285.74 150.437 1285.43 150.003C1285.12 149.564 1284.72 149.345 1284.23 149.345C1283.74 149.345 1283.35 149.562 1283.04 149.996C1282.74 150.43 1282.59 150.948 1282.59 151.55C1282.59 152.143 1282.74 152.658 1283.05 153.097ZM1289.03 150.808C1288.82 151.013 1288.58 151.116 1288.3 151.116C1288.02 151.116 1287.77 151.013 1287.56 150.808C1287.35 150.603 1287.24 150.36 1287.24 150.08C1287.24 149.809 1287.35 149.571 1287.56 149.366C1287.77 149.161 1288.02 149.058 1288.3 149.058C1288.58 149.058 1288.82 149.161 1289.03 149.366C1289.25 149.571 1289.36 149.814 1289.36 150.094C1289.36 150.365 1289.25 150.603 1289.03 150.808ZM1287.79 150.598C1287.93 150.738 1288.1 150.808 1288.3 150.808C1288.5 150.808 1288.67 150.736 1288.8 150.591C1288.94 150.446 1289.01 150.276 1289.01 150.08C1289.01 149.889 1288.94 149.723 1288.8 149.583C1288.67 149.438 1288.5 149.366 1288.3 149.366C1288.1 149.366 1287.93 149.438 1287.79 149.583C1287.66 149.728 1287.59 149.898 1287.59 150.094C1287.59 150.285 1287.66 150.453 1287.79 150.598Z" fill="#979797"/>
<path d="M1359.05 557.084C1358.55 557.084 1358.05 556.881 1357.57 556.475L1357.81 556.195C1358.22 556.568 1358.64 556.755 1359.06 556.755C1359.53 556.755 1359.92 556.536 1360.23 556.097C1360.53 555.654 1360.68 555.087 1360.68 554.396V554.228C1360.33 554.858 1359.82 555.173 1359.16 555.173C1358.67 555.173 1358.26 555.028 1357.94 554.739C1357.62 554.45 1357.46 554.09 1357.46 553.661C1357.46 553.199 1357.62 552.809 1357.95 552.492C1358.27 552.175 1358.68 552.016 1359.18 552.016C1359.68 552.016 1360.1 552.182 1360.43 552.513C1360.84 552.924 1361.05 553.565 1361.05 554.438C1361.05 555.203 1360.86 555.836 1360.48 556.335C1360.1 556.834 1359.63 557.084 1359.05 557.084ZM1359.17 554.851C1359.57 554.851 1359.9 554.725 1360.15 554.473C1360.41 554.216 1360.53 553.922 1360.53 553.591C1360.53 553.241 1360.4 552.947 1360.14 552.709C1359.87 552.466 1359.54 552.345 1359.14 552.345C1358.75 552.345 1358.44 552.476 1358.2 552.737C1357.96 552.994 1357.84 553.302 1357.84 553.661C1357.84 554.006 1357.96 554.291 1358.21 554.515C1358.46 554.739 1358.78 554.851 1359.17 554.851ZM1363.97 557.084C1363.36 557.084 1362.87 556.839 1362.5 556.349C1362.13 555.854 1361.95 555.255 1361.95 554.55C1361.95 554.097 1362.03 553.68 1362.19 553.297C1362.35 552.914 1362.59 552.606 1362.91 552.373C1363.22 552.135 1363.58 552.016 1363.98 552.016C1364.59 552.016 1365.08 552.263 1365.45 552.758C1365.82 553.248 1366.01 553.845 1366.01 554.55C1366.01 555.003 1365.92 555.42 1365.76 555.803C1365.6 556.186 1365.36 556.496 1365.04 556.734C1364.73 556.967 1364.37 557.084 1363.97 557.084ZM1362.79 556.097C1363.09 556.536 1363.49 556.755 1363.98 556.755C1364.47 556.755 1364.87 556.538 1365.17 556.104C1365.48 555.665 1365.63 555.147 1365.63 554.55C1365.63 553.953 1365.47 553.437 1365.17 553.003C1364.86 552.564 1364.46 552.345 1363.97 552.345C1363.48 552.345 1363.08 552.562 1362.78 552.996C1362.48 553.43 1362.32 553.948 1362.32 554.55C1362.32 555.143 1362.48 555.658 1362.79 556.097ZM1368.77 553.808C1368.56 554.013 1368.32 554.116 1368.04 554.116C1367.76 554.116 1367.51 554.013 1367.29 553.808C1367.08 553.603 1366.98 553.36 1366.98 553.08C1366.98 552.809 1367.08 552.571 1367.29 552.366C1367.51 552.161 1367.76 552.058 1368.04 552.058C1368.32 552.058 1368.56 552.161 1368.77 552.366C1368.99 552.571 1369.09 552.814 1369.09 553.094C1369.09 553.365 1368.99 553.603 1368.77 553.808ZM1367.53 553.598C1367.67 553.738 1367.84 553.808 1368.04 553.808C1368.24 553.808 1368.4 553.736 1368.54 553.591C1368.68 553.446 1368.74 553.276 1368.74 553.08C1368.74 552.889 1368.68 552.723 1368.54 552.583C1368.4 552.438 1368.24 552.366 1368.04 552.366C1367.84 552.366 1367.67 552.438 1367.53 552.583C1367.4 552.728 1367.33 552.898 1367.33 553.094C1367.33 553.285 1367.4 553.453 1367.53 553.598Z" fill="#979797"/>
<path d="M1369 567.5C1369 560.596 1374.6 555 1381.5 555" stroke="#C4C4C4"/>
<rect x="-24" y="568" width="1" height="1600" transform="rotate(-90 -24 568)" fill="#EDEDED"/>
</svg>
