<svg width="36" height="36" viewBox="0 0 36 36" fill="none" xmlns="http://www.w3.org/2000/svg">
<path d="M17.9997 0C10.6668 0 4.70117 5.96558 4.70117 13.2986C4.70117 15.7126 5.78383 18.309 5.8292 18.4185C6.17888 19.2485 6.86884 20.5377 7.36636 21.2934L16.4845 35.109C16.8576 35.6754 17.4099 36 17.9997 36C18.5896 36 19.1419 35.6754 19.515 35.1098L28.6339 21.2934C29.1322 20.5377 29.8214 19.2485 30.1711 18.4185C30.2164 18.3098 31.2983 15.7134 31.2983 13.2986C31.2983 5.96558 25.3327 0 17.9997 0ZM28.7286 17.8115C28.4164 18.5554 27.7742 19.7546 27.3275 20.4321L18.2086 34.2485C18.0287 34.5215 17.9716 34.5215 17.7917 34.2485L8.67275 20.4321C8.22607 19.7546 7.58383 18.5546 7.27171 17.8107C7.25841 17.7786 6.26571 15.3888 6.26571 13.2986C6.26571 6.82842 11.5296 1.56454 17.9997 1.56454C24.4699 1.56454 29.7338 6.82842 29.7338 13.2986C29.7338 15.3919 28.7387 17.788 28.7286 17.8115Z" fill="white"/>
<path d="M17.9999 6.25891C14.1175 6.25891 10.9595 9.41771 10.9595 13.2993C10.9595 17.1809 14.1175 20.3397 17.9999 20.3397C21.8823 20.3397 25.0403 17.1809 25.0403 13.2993C25.0403 9.41771 21.8823 6.25891 17.9999 6.25891ZM17.9999 18.7752C14.9811 18.7752 12.524 16.3189 12.524 13.2993C12.524 10.2798 14.9811 7.82345 17.9999 7.82345C21.0187 7.82345 23.4758 10.2798 23.4758 13.2993C23.4758 16.3189 21.0187 18.7752 17.9999 18.7752Z" fill="white"/>
</svg>
