<svg width="39" height="39" viewBox="0 0 39 39" fill="none" xmlns="http://www.w3.org/2000/svg">
<g clip-path="url(#clip0)">
<path d="M19.5001 0C19.1411 0 18.8501 0.291037 18.8501 0.65V4.55C18.8501 4.90896 19.1411 5.2 19.5001 5.2C19.8591 5.2 20.1501 4.90896 20.1501 4.55V0.65C20.1501 0.291037 19.8591 0 19.5001 0Z" fill="white"/>
<path d="M16.9798 1.46383L16.8667 0.823582C16.8043 0.469982 16.4672 0.233788 16.1136 0.296107C15.76 0.358425 15.5238 0.695532 15.5861 1.04913L15.6992 1.68938C15.7541 1.99976 16.0237 2.22604 16.3388 2.22628C16.3768 2.2262 16.4146 2.22295 16.452 2.21653H16.452C16.8056 2.15438 17.0419 1.81743 16.9798 1.46383Z" fill="white"/>
<path d="M13.8859 2.17552L13.6636 1.56452C13.6609 1.55656 13.658 1.54867 13.655 1.54079C13.5257 1.20588 13.1494 1.03924 12.8145 1.16859C12.4796 1.29794 12.3129 1.67421 12.4423 2.00912L12.6639 2.61947C12.7572 2.87654 13.0014 3.04782 13.2749 3.04782C13.3508 3.04782 13.4261 3.03457 13.4974 3.00865C13.8347 2.88589 14.0087 2.51287 13.8859 2.17552Z" fill="white"/>
<path d="M8.29786 5.14029L7.87991 4.64238C7.65046 4.38019 7.25509 4.3455 6.98356 4.56382C6.70373 4.78872 6.65921 5.19781 6.88411 5.47764L7.30206 5.97554C7.42548 6.12292 7.60772 6.20807 7.79996 6.20824C7.95287 6.20824 8.10091 6.15437 8.21799 6.05606C8.49294 5.82522 8.52869 5.41524 8.29786 5.14029Z" fill="white"/>
<path d="M5.97553 7.30205L5.47763 6.88409C5.20609 6.66586 4.81073 6.70047 4.58128 6.96266C4.34484 7.23282 4.37222 7.64346 4.64238 7.8799L5.14028 8.29785C5.2572 8.396 5.40491 8.44979 5.55758 8.44995C5.74974 8.44995 5.93206 8.36496 6.05556 8.21782C6.28639 7.94278 6.25048 7.5328 5.97553 7.30205Z" fill="white"/>
<path d="M2.6197 12.6639L2.00935 12.4423C2.00155 12.4392 1.99358 12.4363 1.98562 12.4336C1.646 12.3174 1.27639 12.4986 1.1602 12.8382C1.04393 13.1778 1.22512 13.5474 1.56475 13.6636L2.17575 13.8859C2.24676 13.912 2.32175 13.9254 2.3974 13.9256C2.67243 13.9265 2.91829 13.7544 3.0114 13.4955C3.13287 13.1577 2.95753 12.7854 2.6197 12.6639Z" fill="white"/>
<path d="M1.68938 15.6995L1.04913 15.5864C0.695532 15.5241 0.358425 15.7603 0.296107 16.1139C0.233788 16.4675 0.469982 16.8046 0.823582 16.8669L1.46383 16.98C1.50121 16.9864 1.53899 16.9897 1.57693 16.9897C1.89275 16.9899 2.16299 16.763 2.21751 16.4519C2.27942 16.0983 2.04298 15.7614 1.68938 15.6995Z" fill="white"/>
<path d="M2.21679 22.5475C2.15448 22.1939 1.81737 21.9577 1.46377 22.02L0.82352 22.1331C0.512657 22.1875 0.285888 22.4574 0.285645 22.773C0.285482 23.132 0.576276 23.4232 0.93532 23.4233C0.973426 23.4233 1.01153 23.42 1.04907 23.4136L1.68932 23.3005C2.04292 23.2382 2.27911 22.9011 2.21679 22.5475Z" fill="white"/>
<path d="M3.00847 25.503C2.88587 25.1656 2.51293 24.9914 2.1755 25.114L1.5645 25.3363C1.30726 25.4296 1.13607 25.6741 1.13623 25.9478C1.13656 26.3068 1.42776 26.5976 1.7868 26.5973C1.86261 26.5971 1.93784 26.5837 2.0091 26.5576L2.61945 26.336C2.95688 26.2133 3.13108 25.8404 3.00847 25.503Z" fill="white"/>
<path d="M6.05742 30.7618C5.82106 30.4916 5.41034 30.4642 5.14019 30.7006L4.64229 31.1186C4.49506 31.2421 4.41008 31.4245 4.41016 31.6166C4.41024 31.9756 4.70128 32.2665 5.06024 32.2665C5.21291 32.2664 5.36062 32.2126 5.47754 32.1144L5.97544 31.6965C5.98251 31.6908 5.98941 31.685 5.99624 31.679C6.26639 31.4427 6.29378 31.032 6.05742 30.7618Z" fill="white"/>
<path d="M8.21727 32.9251C7.93744 32.7002 7.52835 32.7447 7.30345 33.0246L6.8855 33.5225C6.78767 33.6393 6.73397 33.7869 6.73389 33.9393C6.73364 34.2983 7.02444 34.5895 7.3834 34.5898C7.57547 34.5898 7.7578 34.5049 7.8813 34.3577L8.29925 33.8598C8.30526 33.853 8.31103 33.846 8.31672 33.839C8.54162 33.5592 8.49709 33.15 8.21727 32.9251Z" fill="white"/>
<path d="M13.4971 35.9916C13.1597 35.869 12.7867 36.0432 12.6641 36.3807L12.4425 36.991C12.4166 37.0624 12.4032 37.1376 12.4033 37.2135C12.4034 37.5725 12.6945 37.8634 13.0535 37.8633C13.3266 37.8632 13.5704 37.6922 13.6638 37.4356L13.8861 36.8246C14.0087 36.4872 13.8345 36.1143 13.4971 35.9916Z" fill="white"/>
<path d="M16.4527 36.7832C16.0991 36.7208 15.762 36.957 15.6997 37.3106L15.5866 37.9509V37.951C15.5245 38.3046 15.7608 38.6415 16.1144 38.7036C16.1517 38.7106 16.1895 38.714 16.2275 38.714C16.5429 38.7137 16.8125 38.4871 16.8671 38.1764L16.9802 37.5362C17.0425 37.1826 16.8063 36.8455 16.4527 36.7832Z" fill="white"/>
<path d="M23.4138 37.9509L23.3007 37.3106C23.2384 36.957 22.9013 36.7208 22.5477 36.7832C22.1941 36.8455 21.9579 37.1826 22.0202 37.5362L22.1333 38.1764C22.1879 38.4871 22.4575 38.7137 22.7729 38.714C22.8109 38.714 22.8487 38.7106 22.886 38.7036H22.8861C23.2397 38.6414 23.476 38.3045 23.4138 37.9509Z" fill="white"/>
<path d="M26.5576 36.991L26.336 36.3807C26.2134 36.0432 25.8404 35.869 25.503 35.9916C25.1656 36.1143 24.9914 36.4872 25.114 36.8246L25.3363 37.4356C25.4297 37.6923 25.6735 37.8632 25.9466 37.8633C26.0225 37.8633 26.0978 37.8501 26.1691 37.8242C26.5064 37.7014 26.6804 37.3284 26.5576 36.991Z" fill="white"/>
<path d="M32.1147 33.5224L31.6967 33.0245C31.691 33.0174 31.6853 33.0105 31.6792 33.0037C31.4429 32.7336 31.0322 32.7062 30.762 32.9425C30.4919 33.1789 30.4645 33.5896 30.7009 33.8598L31.1189 34.3577C31.242 34.5053 31.4245 34.5904 31.6168 34.5897C31.7692 34.5896 31.9167 34.5359 32.0336 34.4381C32.3088 34.2076 32.3452 33.7976 32.1147 33.5224Z" fill="white"/>
<path d="M34.3576 31.1188L33.8597 30.7009C33.8529 30.695 33.846 30.6891 33.8389 30.6834C33.5591 30.4585 33.15 30.503 32.9251 30.7829C32.7002 31.0627 32.7447 31.4718 33.0246 31.6967L33.5225 32.1146C33.6394 32.2128 33.7871 32.2666 33.9398 32.2667C34.1319 32.2667 34.3143 32.1818 34.4378 32.0346C34.6685 31.7596 34.6326 31.3496 34.3576 31.1188Z" fill="white"/>
<path d="M37.4354 25.3363L36.8244 25.114C36.4869 24.9914 36.114 25.1656 35.9914 25.503C35.8688 25.8404 36.043 26.2133 36.3804 26.336L36.9908 26.5576C37.062 26.5837 37.1372 26.5971 37.2131 26.5973C37.4867 26.5975 37.7312 26.4263 37.8246 26.169C37.9471 25.8316 37.7728 25.4587 37.4354 25.3363Z" fill="white"/>
<path d="M38.1767 22.1331L37.5364 22.02C37.1828 21.9577 36.8457 22.1939 36.7834 22.5475C36.7211 22.9011 36.9573 23.2382 37.3109 23.3005L37.9511 23.4136C37.9887 23.42 38.0268 23.4233 38.0649 23.4233C38.3805 23.4232 38.6503 23.1963 38.7048 22.8855C38.7667 22.5319 38.5303 22.195 38.1767 22.1331Z" fill="white"/>
<path d="M38.7041 16.1139C38.6418 15.7603 38.3047 15.5241 37.9511 15.5864L37.3108 15.6995C36.9997 15.754 36.7729 16.0242 36.7729 16.3401C36.7731 16.699 37.0642 16.9899 37.4233 16.9897C37.4612 16.9897 37.499 16.9864 37.5364 16.98L38.1766 16.8669C38.5302 16.8046 38.7664 16.4675 38.7041 16.1139Z" fill="white"/>
<path d="M37.8316 12.8145C37.7024 12.4796 37.326 12.3129 36.9911 12.4423L36.3807 12.6639C36.122 12.7569 35.9497 13.0029 35.9507 13.2779C35.952 13.6369 36.2441 13.9269 36.603 13.9256C36.6787 13.9254 36.7537 13.912 36.8247 13.8859L37.4357 13.6636C37.4437 13.6609 37.4515 13.658 37.4593 13.655C37.7943 13.5257 37.9609 13.1494 37.8316 12.8145Z" fill="white"/>
<path d="M34.4363 6.98356C34.2114 6.70373 33.8023 6.65921 33.5225 6.88411L33.0246 7.30206C32.8774 7.42556 32.7924 7.60788 32.7925 7.80004C32.7926 8.159 33.0836 8.44996 33.4426 8.44996C33.5952 8.4498 33.7429 8.39601 33.8599 8.29786L34.3578 7.87991C34.62 7.65046 34.6547 7.2551 34.4363 6.98356Z" fill="white"/>
<path d="M32.0372 4.58125C31.767 4.34489 31.3564 4.37219 31.1199 4.64235L30.702 5.14025C30.6037 5.25733 30.5498 5.40537 30.5498 5.55828C30.5499 5.91724 30.8409 6.20828 31.1999 6.2082C31.3921 6.20804 31.5744 6.12289 31.6978 5.9755L32.1157 5.4776C32.3341 5.20606 32.2994 4.81062 32.0372 4.58125Z" fill="white"/>
<path d="M26.1616 1.16021C25.822 1.04394 25.4524 1.22505 25.3362 1.56467L25.1139 2.17567C25.088 2.24701 25.0746 2.32225 25.0747 2.39813C25.0748 2.7571 25.3659 3.04805 25.7249 3.04797C25.9984 3.04797 26.2426 2.8767 26.3359 2.61962L26.5575 2.00927C26.5605 2.00147 26.5634 1.99359 26.5661 1.98563C26.6823 1.646 26.5012 1.2764 26.1616 1.16021Z" fill="white"/>
<path d="M22.8863 0.296107C22.5327 0.233788 22.1956 0.469982 22.1333 0.823582L22.0202 1.46383V1.46391C21.9581 1.81751 22.1944 2.15446 22.548 2.21653C22.5853 2.22295 22.6231 2.2262 22.6611 2.22628C22.9762 2.22604 23.2458 1.99976 23.3007 1.68938L23.4138 1.04913C23.4761 0.695532 23.2399 0.358425 22.8863 0.296107Z" fill="white"/>
<path d="M11.9371 5.1018L10.6371 2.8502C10.4573 2.5434 10.0643 2.4381 9.7551 2.61384C9.44302 2.79129 9.3339 3.18812 9.51135 3.5002L10.8113 5.7518C10.9275 5.95313 11.1424 6.07704 11.3749 6.0768C11.4888 6.07672 11.6006 6.04665 11.6992 5.9897C12.0101 5.81022 12.1166 5.41266 11.9371 5.1018Z" fill="white"/>
<path d="M5.75131 10.812L3.49971 9.51203C3.19055 9.33629 2.79755 9.44159 2.61766 9.74839C2.43615 10.0581 2.53998 10.4563 2.84971 10.6378L5.10131 11.9378C5.20011 11.9949 5.31223 12.0249 5.42631 12.0249C5.65852 12.0249 5.8731 11.901 5.98921 11.6999C6.16869 11.3891 6.06217 10.9915 5.75131 10.812Z" fill="white"/>
<path d="M5.992 27.2939C5.81041 26.9843 5.4122 26.8805 5.10248 27.0621L2.85088 28.3621C2.64979 28.4782 2.52588 28.6927 2.52588 28.925C2.52588 29.2839 2.81684 29.575 3.17588 29.575C3.29004 29.5752 3.40216 29.5451 3.50088 29.4879L5.75248 28.1879C5.755 28.1864 5.75752 28.1849 5.76004 28.1835C6.06976 28.0019 6.1736 27.6037 5.992 27.2939Z" fill="white"/>
<path d="M11.6992 33.0045C11.3872 32.8271 10.9903 32.9362 10.8129 33.2483L9.51288 35.4999C9.45593 35.5985 9.42594 35.7103 9.42578 35.8242C9.42538 36.1832 9.71609 36.4746 10.0751 36.4749C10.3076 36.4751 10.5225 36.3512 10.6387 36.1499L11.9387 33.8983C11.9401 33.8958 11.9415 33.8933 11.943 33.8908C12.1204 33.5788 12.0112 33.182 11.6992 33.0045Z" fill="white"/>
<path d="M29.4874 35.4997L28.1874 33.2481C28.0075 32.9413 27.6145 32.836 27.3055 33.0118C26.9934 33.1892 26.8842 33.586 27.0616 33.8981L28.3616 36.1497C28.4777 36.351 28.6927 36.4749 28.9251 36.4747C29.0389 36.4746 29.1508 36.4445 29.2495 36.3876C29.5603 36.2081 29.6668 35.8105 29.4874 35.4997Z" fill="white"/>
<path d="M36.1492 28.3621L33.8976 27.0621C33.5884 26.8863 33.1955 26.9916 33.0157 27.2984C32.8341 27.608 32.9379 28.0063 33.2476 28.1879L35.4992 29.4879C35.5979 29.5452 35.71 29.5752 35.8242 29.575C36.0564 29.575 36.2709 29.4511 36.3871 29.25C36.5665 28.9391 36.46 28.5416 36.1492 28.3621Z" fill="white"/>
<path d="M36.3868 9.75583C36.2093 9.44375 35.8125 9.33463 35.5004 9.51208L33.2488 10.8121C33.0477 10.9282 32.9238 11.1428 32.9238 11.375C32.9238 11.7339 33.2148 12.025 33.5738 12.025C33.6879 12.025 33.8 11.9949 33.8988 11.9379L36.1504 10.6379C36.4572 10.458 36.5625 10.065 36.3868 9.75583Z" fill="white"/>
<path d="M29.2522 2.61845C28.9426 2.43686 28.5443 2.5407 28.3627 2.85034L27.0627 5.10194C27.0057 5.20058 26.9757 5.31238 26.9756 5.42629C26.9752 5.78525 27.266 6.07662 27.6249 6.07694C27.8574 6.07718 28.0723 5.95328 28.1885 5.75194L29.4885 3.50034C29.6642 3.19118 29.5589 2.79826 29.2522 2.61845Z" fill="white"/>
<path d="M4.55 18.8501H0.65C0.291037 18.8501 0 19.1411 0 19.5001C0 19.8591 0.291037 20.1501 0.65 20.1501H4.55C4.90896 20.1501 5.2 19.8591 5.2 19.5001C5.2 19.1411 4.90896 18.8501 4.55 18.8501Z" fill="white"/>
<path d="M19.5001 33.8C19.1411 33.8 18.8501 34.0911 18.8501 34.45V38.3501C18.8501 38.709 19.1411 39.0001 19.5001 39.0001C19.8591 39.0001 20.1501 38.709 20.1501 38.3501V34.45C20.1501 34.0911 19.8591 33.8 19.5001 33.8Z" fill="white"/>
<path d="M38.3499 18.8501H33.7999C33.4409 18.8501 33.1499 19.1411 33.1499 19.5001C33.1499 19.8591 33.4409 20.1501 33.7999 20.1501H38.3499C38.7089 20.1501 38.9999 19.8591 38.9999 19.5001C38.9999 19.1411 38.7089 18.8501 38.3499 18.8501Z" fill="white"/>
<path d="M28.7487 10.2836C28.4949 10.0298 28.0835 10.0298 27.8296 10.2836L20.8194 17.2938C20.4239 17.0675 19.975 16.951 19.5194 16.9565C19.0904 16.9665 18.6707 17.0831 18.298 17.2958L14.9629 13.9606C14.7091 13.7057 14.2967 13.7048 14.0418 13.9587C13.787 14.2125 13.7861 14.6248 14.0399 14.8797L17.3484 18.1882C16.5838 19.4062 16.9515 21.0134 18.1695 21.778C19.3875 22.5426 20.9947 22.1749 21.7593 20.9568C22.2906 20.1104 22.2906 19.0346 21.7593 18.1882L28.7487 11.2027C29.0025 10.9488 29.0025 10.5374 28.7487 10.2836ZM20.5304 20.4604C20.0413 20.9859 19.2186 21.0154 18.6931 20.5263C18.6801 20.5142 18.6674 20.5018 18.6549 20.4892C18.1397 19.9892 18.1273 19.1661 18.6273 18.6509C18.8672 18.4039 19.1952 18.2619 19.5395 18.2565C19.8851 18.2466 20.2195 18.3792 20.4645 18.6231C20.99 19.1122 21.0195 19.9348 20.5304 20.4604Z" fill="white"/>
</g>
<defs>
<clipPath id="clip0">
<rect width="39" height="39" fill="white"/>
</clipPath>
</defs>
</svg>
